<?xml version="1.0" encoding="utf-8"?>
<!-- Generator: Adobe Illustrator 23.1.1, SVG Export Plug-In . SVG Version: 6.00 Build 0)  -->
<svg version="1.1" xmlns="http://www.w3.org/2000/svg" xmlns:xlink="http://www.w3.org/1999/xlink" x="0px" y="0px"
	 viewBox="0 0 95.54 29.06" style="enable-background:new 0 0 95.54 29.06;" xml:space="preserve">
<style type="text/css">
	.st0{font-family:'Quicksand-Bold';}
	.st1{font-size:24px;}
	.st2{fill:none;stroke:#000000;stroke-width:2;stroke-linecap:round;stroke-linejoin:round;stroke-miterlimit:1;}
</style>
<g id="Layer_1">
	<g>
		<text transform="matrix(1 0 0 1 -2.441406e-04 21.79)"><tspan x="0" y="0" class="st0 st1">W</tspan><tspan x="21.79" y="0" class="st0 st1">o</tspan><tspan x="36.53" y="0" class="st0 st1">o</tspan><tspan x="51" y="0" class="st0 st1">fly</tspan></text>
		<path class="st2" d="M84.32,17.91c0.07,0.04,0.14,0.06,0.22,0.06c0.08,0,0.15-0.02,0.22-0.06c0.4-0.22,9.78-5.45,9.78-11.8
			c0-2.82-2.35-5.11-5.23-5.11c-2.11,0-3.95,1.23-4.77,3.02C83.72,2.23,81.88,1,79.77,1c-2.88,0-5.23,2.29-5.23,5.11"/>
	</g>
</g>
<g id="Layer_2">
</g>
</svg>
