<?xml version="1.0" encoding="utf-8"?>
<!-- Generator: Adobe Illustrator 24.1.0, SVG Export Plug-In . SVG Version: 6.00 Build 0)  -->
<svg version="1.1" xmlns="http://www.w3.org/2000/svg" xmlns:xlink="http://www.w3.org/1999/xlink" x="0px" y="0px"
	 viewBox="0 0 95.54 29.06" style="enable-background:new 0 0 95.54 29.06;" xml:space="preserve">
<g id="Layer_1">
	<g>
		<g>
			<path d="M21.76,5.36c0.33,0.3,0.49,0.67,0.49,1.12c0,0.14-0.02,0.3-0.07,0.48l-4.73,13.92c-0.1,0.27-0.26,0.49-0.5,0.65
				c-0.24,0.16-0.5,0.25-0.79,0.26c-0.29,0-0.56-0.08-0.82-0.24c-0.26-0.16-0.46-0.39-0.6-0.7l-3.41-7.75L7.9,20.85
				c-0.14,0.3-0.34,0.54-0.6,0.7c-0.26,0.16-0.53,0.24-0.82,0.24c-0.29-0.02-0.55-0.1-0.79-0.26c-0.24-0.16-0.41-0.38-0.5-0.65
				L0.46,6.96C0.41,6.78,0.38,6.62,0.38,6.48c0-0.45,0.16-0.82,0.49-1.12c0.33-0.3,0.69-0.44,1.09-0.44c0.32,0,0.61,0.08,0.86,0.25
				c0.26,0.17,0.43,0.4,0.53,0.68L6.94,16.7l3.12-7.49c0.13-0.29,0.31-0.52,0.55-0.68c0.24-0.17,0.51-0.24,0.82-0.23
				c0.3-0.02,0.57,0.06,0.8,0.23c0.23,0.17,0.41,0.4,0.54,0.68l2.95,7.42l3.55-10.78c0.1-0.29,0.28-0.52,0.54-0.68
				c0.26-0.17,0.56-0.25,0.88-0.25C21.07,4.92,21.43,5.07,21.76,5.36z"/>
			<path d="M34.46,18.83c-0.58,1.02-1.36,1.8-2.36,2.36c-1,0.56-2.1,0.84-3.3,0.84c-1.22,0-2.32-0.28-3.31-0.84
				c-0.99-0.56-1.78-1.35-2.35-2.36c-0.58-1.02-0.86-2.16-0.86-3.44s0.29-2.43,0.86-3.44c0.58-1.02,1.36-1.81,2.35-2.38
				c0.99-0.57,2.1-0.85,3.31-0.85c1.2,0,2.3,0.28,3.3,0.85c1,0.57,1.79,1.36,2.36,2.38c0.58,1.02,0.86,2.16,0.86,3.44
				S35.04,17.81,34.46,18.83z M31.96,13.28c-0.33-0.62-0.77-1.09-1.32-1.43s-1.16-0.5-1.84-0.5s-1.28,0.17-1.84,0.5
				s-0.99,0.81-1.32,1.43s-0.49,1.32-0.49,2.1c0,0.78,0.16,1.48,0.49,2.09c0.33,0.61,0.77,1.08,1.32,1.42
				c0.55,0.34,1.16,0.5,1.84,0.5s1.28-0.17,1.84-0.5c0.55-0.34,0.99-0.81,1.32-1.42c0.33-0.61,0.49-1.3,0.49-2.09
				C32.45,14.6,32.28,13.9,31.96,13.28z"/>
			<path d="M49.2,18.83c-0.58,1.02-1.36,1.8-2.36,2.36c-1,0.56-2.1,0.84-3.3,0.84c-1.22,0-2.32-0.28-3.31-0.84
				c-0.99-0.56-1.78-1.35-2.35-2.36c-0.58-1.02-0.86-2.16-0.86-3.44s0.29-2.43,0.86-3.44c0.58-1.02,1.36-1.81,2.35-2.38
				c0.99-0.57,2.1-0.85,3.31-0.85c1.2,0,2.3,0.28,3.3,0.85c1,0.57,1.79,1.36,2.36,2.38c0.58,1.02,0.86,2.16,0.86,3.44
				S49.78,17.81,49.2,18.83z M46.69,13.28c-0.33-0.62-0.77-1.09-1.32-1.43s-1.16-0.5-1.84-0.5s-1.28,0.17-1.84,0.5
				s-0.99,0.81-1.32,1.43s-0.49,1.32-0.49,2.1c0,0.78,0.16,1.48,0.49,2.09c0.33,0.61,0.77,1.08,1.32,1.42
				c0.55,0.34,1.16,0.5,1.84,0.5s1.28-0.17,1.84-0.5c0.55-0.34,0.99-0.81,1.32-1.42c0.33-0.61,0.49-1.3,0.49-2.09
				C47.18,14.6,47.02,13.9,46.69,13.28z"/>
			<path d="M57.22,7.04c-0.22,0.31-0.34,0.65-0.34,1.02v1.13h2.18c0.38,0,0.7,0.12,0.96,0.37s0.38,0.56,0.38,0.95
				c0,0.38-0.13,0.7-0.38,0.95s-0.58,0.37-0.96,0.37h-2.18v8.5c0,0.42-0.14,0.76-0.41,1.04c-0.27,0.28-0.62,0.42-1.03,0.42
				s-0.76-0.14-1.03-0.42C54.14,21.09,54,20.74,54,20.33v-8.5h-1.3c-0.38,0-0.71-0.12-0.96-0.37s-0.38-0.56-0.38-0.95
				c0-0.38,0.13-0.7,0.38-0.95s0.58-0.37,0.96-0.37H54v-1.1c0-1.2,0.41-2.18,1.24-2.93s2.01-1.13,3.56-1.13
				c0.59,0,1.11,0.12,1.55,0.36c0.44,0.24,0.66,0.61,0.66,1.1c0,0.38-0.11,0.7-0.34,0.94c-0.22,0.24-0.5,0.36-0.82,0.36
				c-0.08,0-0.16-0.01-0.25-0.02c-0.09-0.02-0.18-0.03-0.28-0.05c-0.38-0.1-0.71-0.14-0.96-0.14C57.82,6.57,57.44,6.73,57.22,7.04z
				 M64.91,21.37c-0.28,0.28-0.63,0.42-1.04,0.42c-0.4,0-0.74-0.14-1.01-0.42c-0.27-0.28-0.41-0.63-0.41-1.04V5.49
				c0-0.42,0.14-0.76,0.42-1.04c0.28-0.28,0.63-0.42,1.04-0.42c0.4,0,0.74,0.14,1.01,0.42c0.27,0.28,0.41,0.63,0.41,1.04v14.83
				C65.33,20.74,65.19,21.09,64.91,21.37z"/>
			<path d="M79.25,9.37c0.27,0.28,0.41,0.63,0.41,1.04v10.2c0,2.08-0.56,3.6-1.68,4.55s-2.62,1.43-4.49,1.43
				c-0.54,0-1.1-0.04-1.67-0.13c-0.57-0.09-1.03-0.2-1.38-0.35c-0.78-0.34-1.18-0.8-1.18-1.39c0-0.11,0.02-0.24,0.07-0.38
				c0.1-0.35,0.26-0.62,0.49-0.8c0.23-0.18,0.48-0.28,0.76-0.28c0.16,0,0.31,0.02,0.46,0.07c0.11,0.05,0.31,0.13,0.59,0.24
				c0.28,0.11,0.58,0.2,0.89,0.28c0.31,0.07,0.64,0.11,0.97,0.11c1.14,0,1.97-0.24,2.51-0.73c0.54-0.49,0.8-1.32,0.8-2.51v-0.24
				c-0.83,1.04-2.13,1.56-3.89,1.56c-0.83,0-1.57-0.2-2.21-0.59c-0.64-0.39-1.14-0.94-1.49-1.63c-0.35-0.7-0.53-1.49-0.53-2.39
				v-7.01c0-0.42,0.14-0.76,0.41-1.04c0.27-0.28,0.62-0.42,1.03-0.42s0.76,0.14,1.03,0.42c0.27,0.28,0.41,0.63,0.41,1.04v6.14
				c0,1.01,0.22,1.73,0.66,2.17c0.44,0.44,1.08,0.66,1.93,0.66c0.83,0,1.48-0.24,1.93-0.73s0.68-1.19,0.68-2.1v-6.14
				c0-0.42,0.14-0.76,0.41-1.04c0.27-0.28,0.62-0.42,1.03-0.42S78.98,9.09,79.25,9.37z"/>
		</g>
		<g>
			<path d="M84.54,18.96c-0.25,0-0.49-0.06-0.71-0.18c-0.48-0.27-0.65-0.88-0.38-1.36c0.21-0.38,0.62-0.56,1.03-0.5
				c1.33-0.77,9.07-5.51,9.07-10.81c0-2.27-1.9-4.11-4.23-4.11c-1.67,0-3.18,0.96-3.86,2.44c-0.16,0.35-0.52,0.58-0.91,0.58l0,0
				c-0.39,0-0.75-0.23-0.91-0.58C82.95,2.96,81.43,2,79.77,2c-1.13,0-2.2,0.43-3,1.21c-0.79,0.78-1.23,1.8-1.23,2.89
				c0,0.55-0.45,1-1,1c0,0,0,0,0,0c-0.55,0-1-0.45-1-1c0-1.63,0.65-3.17,1.83-4.33C76.55,0.63,78.11,0,79.77,0
				c1.87,0,3.61,0.82,4.77,2.18C85.71,0.82,87.45,0,89.31,0c3.43,0,6.23,2.74,6.23,6.11c0,6.83-9.25,12.1-10.3,12.67
				C85.02,18.9,84.78,18.96,84.54,18.96z"/>
		</g>
	</g>
</g>
<g id="Layer_2">
</g>
</svg>
